<svg width="34" height="30" viewBox="0 0 34 30" fill="none" xmlns="http://www.w3.org/2000/svg">
<path d="M12.2221 1.99899C14.8609 -0.66634 19.1391 -0.666319 21.778 1.99899L31.1748 11.4905C33.8136 14.1559 33.8136 18.4772 31.1748 21.1426L22.631 29.7725V20.9804C22.6309 19.2214 21.2192 17.7953 19.4776 17.7953H14.7476C13.0061 17.7953 11.5943 19.2214 11.5943 20.9804V30L2.82524 21.1426C0.186516 18.4772 0.186499 14.1559 2.82524 11.4905L12.2221 1.99899ZM17 5.28249C14.0146 5.28251 11.5943 7.72711 11.5943 10.7426C11.5943 13.7582 14.0146 16.2028 17 16.2028C19.9855 16.2028 22.4057 13.7582 22.4057 10.7426C22.4057 7.7271 19.9855 5.28249 17 5.28249Z" fill="#0167FF"/>
<path d="M12.2221 1.99899C14.8609 -0.66634 19.1391 -0.666319 21.778 1.99899L31.1748 11.4905C33.8136 14.1559 33.8136 18.4772 31.1748 21.1426L22.631 29.7725V20.9804C22.6309 19.2214 21.2192 17.7953 19.4776 17.7953H14.7476C13.0061 17.7953 11.5943 19.2214 11.5943 20.9804V30L2.82524 21.1426C0.186516 18.4772 0.186499 14.1559 2.82524 11.4905L12.2221 1.99899ZM17 5.28249C14.0146 5.28251 11.5943 7.72711 11.5943 10.7426C11.5943 13.7582 14.0146 16.2028 17 16.2028C19.9855 16.2028 22.4057 13.7582 22.4057 10.7426C22.4057 7.7271 19.9855 5.28249 17 5.28249Z" fill="url(#paint0_linear_15_371)"/>
<defs>
<linearGradient id="paint0_linear_15_371" x1="17" y1="0" x2="17" y2="30" gradientUnits="userSpaceOnUse">
<stop offset="0.0528846" stop-color="#4A93FF"/>
<stop offset="0.533654" stop-color="#0066FF"/>
<stop offset="1" stop-color="#216AF8"/>
</linearGradient>
</defs>
</svg>
