<svg width="251" height="60" viewBox="0 0 251 60" fill="none" xmlns="http://www.w3.org/2000/svg">
<path d="M22.5264 3.09559C26.6539 -1.03186 33.3458 -1.03186 37.4732 3.09559L56.904 22.5265C61.0315 26.6539 61.0315 33.3459 56.904 37.4733L37.4732 56.9042C33.3458 61.0317 26.6539 61.0317 22.5264 56.9042L3.09558 37.4733C-1.03186 33.3459 -1.03186 26.6539 3.09558 22.5265L22.5264 3.09559Z" fill="#0066FF"/>
<path d="M22.5264 3.09559C26.6539 -1.03186 33.3458 -1.03186 37.4732 3.09559L56.904 22.5265C61.0315 26.6539 61.0315 33.3459 56.904 37.4733L37.4732 56.9042C33.3458 61.0317 26.6539 61.0317 22.5264 56.9042L3.09558 37.4733C-1.03186 33.3459 -1.03186 26.6539 3.09558 22.5265L22.5264 3.09559Z" fill="url(#paint0_linear_15_491)"/>
<path d="M35.7844 33.6708C38.7028 33.6708 41.0685 36.0365 41.0686 38.955V53.3085L37.4729 56.9042C33.3454 61.0315 26.654 61.0316 22.5266 56.9042L19.9309 54.3085V38.955C19.931 36.0366 22.2967 33.6709 25.2151 33.6708H35.7844ZM29.9719 10.4188C35.5169 10.4191 40.0119 14.9148 40.0119 20.4598C40.0117 26.0047 35.5167 30.4996 29.9719 30.4999C24.4268 30.4999 19.9311 26.0049 19.9309 20.4598C19.9309 14.9146 24.4267 10.4188 29.9719 10.4188Z" fill="white"/>
<path d="M231.299 45.9401H224.195V13.4897H231.299V26.2944H243.84V13.4897H250.944V45.9401H243.84V32.8722H231.299V45.9401Z" fill="url(#paint1_linear_15_491)"/>
<path d="M202.606 13.4897V45.9401H195.502V13.4897H202.606ZM208.658 35.1525H200.852V28.8378H207.079C208.804 28.8378 210.09 28.4724 210.938 27.7415C211.786 26.9814 212.21 25.8413 212.21 24.3211C212.21 22.8009 211.786 21.6754 210.938 20.9445C210.09 20.1844 208.804 19.8044 207.079 19.8044H200.852V13.4897H208.658C210.88 13.4897 212.809 13.9428 214.446 14.8491C216.113 15.7554 217.399 17.0271 218.305 18.6642C219.241 20.2721 219.709 22.1577 219.709 24.3211C219.709 26.4844 219.241 28.3847 218.305 30.0218C217.399 31.6297 216.113 32.8868 214.446 33.7931C212.809 34.6994 210.88 35.1525 208.658 35.1525Z" fill="url(#paint2_linear_15_491)"/>
<path d="M174.416 45.94H169.066V24.2772H174.021L174.459 27.0837C175.132 26.0021 176.082 25.1543 177.31 24.5403C178.567 23.9264 179.926 23.6194 181.388 23.6194C184.107 23.6194 186.153 24.4234 187.527 26.0313C188.931 27.6392 189.632 29.8318 189.632 32.6091V45.94H184.282V33.8808C184.282 32.0682 183.873 30.7234 183.054 29.8464C182.236 28.9401 181.125 28.487 179.722 28.487C178.055 28.487 176.754 29.0132 175.819 30.0657C174.883 31.1181 174.416 32.5214 174.416 34.2754V45.94Z" fill="#273750"/>
<path d="M165.444 24.1895V29.1448H163.471C161.512 29.1448 159.978 29.671 158.867 30.7234C157.756 31.7466 157.2 33.3107 157.2 35.4156V45.94H151.85V24.3211H156.893L157.332 28.7939H156.806C157.098 27.3615 157.785 26.1921 158.867 25.2858C159.948 24.3795 161.352 23.9264 163.076 23.9264C163.456 23.9264 163.837 23.941 164.217 23.9702C164.597 23.9995 165.006 24.0726 165.444 24.1895Z" fill="#273750"/>
<path d="M137.132 46.5101C134.998 46.5101 133.097 46.0277 131.431 45.063C129.794 44.069 128.508 42.7242 127.572 41.0286C126.637 39.3038 126.169 37.3305 126.169 35.1086C126.169 32.8576 126.622 30.8696 127.528 29.1448C128.435 27.4199 129.706 26.0751 131.343 25.1104C132.981 24.1164 134.852 23.6194 136.956 23.6194C139.149 23.6194 141.035 24.0872 142.613 25.0227C144.192 25.929 145.405 27.2007 146.253 28.8378C147.13 30.475 147.569 32.4337 147.569 34.714V36.3365L128.975 36.3803L129.063 32.9599H142.263C142.263 31.4689 141.78 30.2703 140.815 29.364C139.88 28.4578 138.608 28.0046 137 28.0046C135.743 28.0046 134.676 28.2677 133.799 28.794C132.951 29.3202 132.308 30.1095 131.87 31.162C131.431 32.2144 131.212 33.5007 131.212 35.0209C131.212 37.3597 131.709 39.1284 132.703 40.327C133.726 41.5256 135.232 42.1249 137.22 42.1249C138.681 42.1249 139.88 41.8472 140.815 41.2917C141.78 40.7363 142.409 39.947 142.701 38.9237H147.656C147.189 41.2917 146.019 43.1481 144.148 44.4929C142.306 45.8377 139.968 46.5101 137.132 46.5101Z" fill="#273750"/>
<path d="M110.603 24.2772H124.285V28.7501H110.603V24.2772ZM120.119 45.94H114.769V17.524H120.119V45.94Z" fill="#273750"/>
<path d="M92.2789 45.94H86.929V24.2772H91.8843L92.3228 27.0837C92.9952 26.0021 93.9453 25.1543 95.1732 24.5403C96.4303 23.9264 97.7897 23.6194 99.2514 23.6194C101.97 23.6194 104.017 24.4234 105.391 26.0313C106.794 27.6392 107.496 29.8318 107.496 32.6091V45.94H102.146V33.8808C102.146 32.0682 101.736 30.7234 100.918 29.8464C100.099 28.9401 98.9883 28.487 97.585 28.487C95.9186 28.487 94.6177 29.0132 93.6822 30.0657C92.7467 31.1181 92.2789 32.5214 92.2789 34.2754V45.94Z" fill="#273750"/>
<path d="M80.6126 13.8843V45.94H74.9996V13.8843H80.6126Z" fill="#273750"/>
<defs>
<linearGradient id="paint0_linear_15_491" x1="29.9998" y1="0" x2="29.9998" y2="59.9998" gradientUnits="userSpaceOnUse">
<stop offset="0.0528846" stop-color="#4A93FF"/>
<stop offset="0.533654" stop-color="#0066FF"/>
<stop offset="1" stop-color="#216AF8"/>
</linearGradient>
<linearGradient id="paint1_linear_15_491" x1="237.569" y1="13.4897" x2="237.569" y2="45.9401" gradientUnits="userSpaceOnUse">
<stop offset="0.0528846" stop-color="#4A93FF"/>
<stop offset="0.533654" stop-color="#0066FF"/>
<stop offset="1" stop-color="#216AF8"/>
</linearGradient>
<linearGradient id="paint2_linear_15_491" x1="207.606" y1="13.4897" x2="207.606" y2="45.9401" gradientUnits="userSpaceOnUse">
<stop offset="0.0528846" stop-color="#4A93FF"/>
<stop offset="0.533654" stop-color="#0066FF"/>
<stop offset="1" stop-color="#216AF8"/>
</linearGradient>
</defs>
</svg>
